<svg width="49" height="29" viewBox="0 0 49 29" fill="none" xmlns="http://www.w3.org/2000/svg">
<path d="M21.2542 15.5865C21.2542 14.7651 21.6022 14.0464 22.2984 13.4303C22.9945 12.8143 23.8067 12.4857 24.7581 12.4857C25.6862 12.4857 26.4984 12.7937 27.2178 13.4303C27.9139 14.0464 28.262 14.7651 28.262 15.5865C28.262 16.408 27.9139 17.1267 27.2178 17.7428C26.5216 18.3588 25.7094 18.6874 24.7581 18.6874C23.8299 18.6874 23.0177 18.3793 22.2984 17.7428C21.6022 17.1062 21.2542 16.3874 21.2542 15.5865ZM23.2498 14.6419V16.4901C23.2498 17.1472 23.3658 17.6195 23.5978 17.8865C23.8299 18.174 24.2011 18.2972 24.7349 18.2972C25.2686 18.2972 25.6398 18.1535 25.8719 17.8865C26.1039 17.599 26.22 17.1472 26.22 16.4901V14.6419C26.22 13.9848 26.1039 13.5125 25.8719 13.2455C25.6398 12.9786 25.2686 12.8348 24.7349 12.8348C24.2011 12.8348 23.8299 12.9786 23.5978 13.2455C23.3658 13.5125 23.2498 13.9848 23.2498 14.6419Z" fill="#A7B1C2"/>
<path d="M28.6327 18.4612V18.1121H29.7928V12.9579H28.6327V12.6088H29.7232C29.9321 12.6088 30.2105 12.5883 30.5121 12.5678C30.837 12.5472 31.185 12.5062 31.533 12.4651V13.923H31.6723C31.9507 13.4302 32.2755 13.0606 32.67 12.8347C33.0412 12.5883 33.4821 12.4651 33.9693 12.4651C34.3406 12.4651 34.6422 12.5472 34.8743 12.732C35.1063 12.8963 35.1991 13.1427 35.1991 13.4302C35.1991 13.6766 35.1295 13.882 34.9671 14.0257C34.8046 14.1695 34.5958 14.2516 34.3406 14.2516C34.0158 14.2516 33.7837 14.19 33.6213 14.0668C33.4589 13.9436 33.3893 13.7793 33.3893 13.5534V13.4302C33.3893 13.3275 33.3661 13.2454 33.3429 13.2043C33.3197 13.1633 33.2733 13.1427 33.2269 13.1427C32.8324 13.1427 32.4612 13.3686 32.1131 13.8204C31.7651 14.2721 31.5795 14.765 31.5795 15.2989V18.1121H33.0644V18.4612H28.6327Z" fill="#A7B1C2"/>
<path d="M41.2778 16.5929H41.6953C41.4865 17.2706 41.1386 17.8045 40.6283 18.1536C40.1179 18.5027 39.4684 18.6875 38.6797 18.6875C37.7518 18.6875 36.9863 18.4 36.3832 17.825C35.7801 17.25 35.4785 16.5518 35.4785 15.7099C35.4785 14.7858 35.8033 14.026 36.476 13.4099C37.1487 12.7939 37.9838 12.4858 39.0045 12.4858C39.7468 12.4858 40.3499 12.6296 40.7906 12.9171C41.2314 13.2046 41.4633 13.5947 41.4633 14.0671C41.4633 14.3135 41.3938 14.4983 41.2314 14.642C41.069 14.7858 40.8602 14.8679 40.5819 14.8679C40.3035 14.8679 40.0715 14.7858 39.9091 14.642C39.7468 14.4983 39.654 14.3135 39.654 14.0671C39.654 13.8617 39.7236 13.6564 39.8628 13.4921C40.0019 13.3278 40.0715 13.2251 40.0715 13.2251C40.0715 13.1019 39.9787 12.9992 39.7932 12.9171C39.6076 12.8349 39.3524 12.8144 39.0509 12.8144C38.4941 12.8144 38.0766 12.9582 37.8214 13.2662C37.5662 13.5742 37.4503 14.0671 37.4503 14.7447V16.942C37.4503 17.3938 37.5894 17.7223 37.8446 17.9482C38.0998 18.1741 38.4941 18.2973 39.0045 18.2973C39.5148 18.2973 40.0019 18.133 40.4427 17.8045C40.837 17.4965 41.1386 17.0857 41.2778 16.5929Z" fill="#A7B1C2"/>
<path d="M47.8675 16.5928H48.2852C48.0763 17.291 47.7051 17.8044 47.1947 18.1535C46.6843 18.5026 46.0114 18.6874 45.1994 18.6874C44.2713 18.6874 43.5057 18.3999 42.8792 17.8249C42.2528 17.2499 41.9512 16.5517 41.9512 15.7303C41.9512 14.8473 42.276 14.0875 42.9024 13.4509C43.5289 12.8143 44.2945 12.4857 45.1994 12.4857C46.081 12.4857 46.8235 12.7321 47.4035 13.2045C47.9835 13.6973 48.2852 14.2928 48.2852 15.0321V15.1553H43.9465V16.9419C43.9465 17.3526 44.0857 17.6811 44.3641 17.9276C44.6425 18.174 44.9906 18.2972 45.4546 18.2972C46.0346 18.2972 46.5218 18.1329 46.9627 17.8249C47.3803 17.5374 47.7051 17.1062 47.8675 16.5928ZM46.3826 14.7446V13.9437C46.3826 13.5741 46.2898 13.2866 46.081 13.1018C45.8722 12.917 45.5706 12.8348 45.153 12.8348C44.7353 12.8348 44.4337 12.917 44.2249 13.1018C44.0161 13.2866 43.9233 13.5536 43.9233 13.9232V14.7241H46.3826V14.7446Z" fill="#A7B1C2"/>
<path d="M0 18.9133C0 18.6258 0 18.3178 0.0232077 17.9892C0.0232077 17.6607 0.0232077 17.4553 0.0232077 17.4142V11.0687C0.0232077 11.0276 0.0232077 10.8223 0.0232077 10.4937C0 10.1651 0 9.85708 0 9.56958H4.73438C4.73438 9.89815 4.71117 10.2062 4.71117 10.5553C4.68796 10.8839 4.68796 11.0687 4.68796 11.0892V17.4142C4.68796 17.4348 4.68796 17.599 4.71117 17.9482C4.73438 18.2767 4.73438 18.6053 4.73438 18.9133H0Z" fill="#A7B1C2"/>
<path d="M8.42278 18.9338C8.42278 18.6463 8.42278 18.3383 8.44598 18.0097C8.44598 17.6812 8.44598 17.4758 8.44598 17.4347V11.5C8.44598 11.4589 8.44598 11.2741 8.44598 10.925C8.44598 10.5964 8.42278 10.3705 8.42278 10.083C7.8427 10.1035 7.28583 10.0625 6.70575 10.083C6.12567 10.1035 5.82403 10.083 5.80083 10.083C5.66161 10.083 5.54559 10.0625 5.49918 10.0214C5.42958 9.98032 5.40637 9.91871 5.40637 9.83657C5.40637 9.73389 5.42958 9.65175 5.49918 9.61068C5.54559 9.56961 5.68481 9.54907 5.87043 9.54907H15.755C15.9406 9.54907 16.0798 9.56961 16.1262 9.61068C16.1726 9.65175 16.219 9.71336 16.219 9.83657C16.219 9.91871 16.1958 10.0009 16.1262 10.0214C16.0566 10.0625 15.9638 10.083 15.8014 10.083C15.7782 10.083 15.4765 10.1035 14.9197 10.083C14.3396 10.0625 13.7827 10.1035 13.2026 10.083C13.2026 10.3705 13.2026 10.5964 13.1794 10.925C13.1794 11.2535 13.1794 11.4383 13.1794 11.5V17.4142C13.1794 17.4553 13.1794 17.6401 13.1794 17.9892C13.1794 18.3178 13.2026 18.6463 13.2026 18.9133H8.42278V18.9338Z" fill="#A7B1C2"/>
<path d="M30.6285 0C29.4915 0 27.8904 0.944635 25.8021 2.83391C23.737 4.70264 21.8575 6.89995 20.1636 9.44635H18.2377C18.0753 9.44635 17.9825 9.46689 17.9361 9.50796C17.8896 9.54903 17.8664 9.61064 17.8664 9.73385C17.8664 9.81599 17.8896 9.89814 17.9361 9.91867C17.9825 9.95974 18.1217 9.98028 18.1913 9.98028C18.3769 9.98028 18.7482 9.98028 18.9338 9.98028C19.1891 9.98028 19.4675 9.98028 19.7691 9.98028L16.7759 14.8061C14.1538 19.057 12.5064 21.665 11.8103 22.6096C10.9517 23.8007 9.95397 24.848 8.84019 25.7105C6.98389 27.148 5.1508 27.8667 3.34091 27.8667C2.90004 27.8667 2.43596 27.8051 1.97189 27.6819C1.92548 27.6614 1.83266 27.6409 1.71665 27.6409C1.57742 27.6409 1.50781 27.7025 1.50781 27.8257C1.50781 28.0721 1.99509 28.1953 2.99285 28.1953C5.22041 28.1953 7.6336 27.2507 10.2324 25.3409C12.1351 23.9445 13.8058 22.3632 15.2444 20.5766C16.683 18.79 18.4233 16.1409 20.4421 12.6294L21.9967 9.93921C23.3889 9.93921 24.8276 9.93921 25.7325 9.93921C25.9181 9.93921 26.2894 9.93921 26.475 9.93921C26.5446 9.93921 26.6839 9.91867 26.7303 9.8776C26.7767 9.83653 26.7999 9.77492 26.7999 9.69278C26.7999 9.5901 26.7767 9.50796 26.7303 9.46689C26.6839 9.42582 26.591 9.40528 26.4286 9.40528H22.5072C25.1756 7.90619 27.3336 6.36602 29.0042 4.78478C30.6981 3.18301 31.5566 1.8482 31.5566 0.800887C31.5334 0.287498 31.2318 0 30.6285 0ZM28.5402 4.55889C26.7071 6.30441 24.6883 7.84458 22.484 9.17939C24.2475 6.32495 25.5701 4.37407 26.4518 3.32676C28.2153 1.25267 29.6075 0.225891 30.6285 0.225891C31.0694 0.225891 31.3014 0.431247 31.3014 0.821422C31.2782 1.5607 30.3732 2.81337 28.5402 4.55889Z" fill="#A7B1C2"/>
</svg>
