<svg width="13" height="16" viewBox="0 0 13 16" fill="none" xmlns="http://www.w3.org/2000/svg">
<path d="M6.15807 8.00313C5.9888 7.50313 5.99219 6.5375 6.09036 6.5375C6.37474 6.5375 6.34766 7.69063 6.15807 8.00313ZM6.10052 9.47812C5.83984 10.1094 5.51484 10.8313 5.13906 11.4375C5.75859 11.2188 6.45938 10.9 7.26849 10.7531C6.83854 10.4531 6.42552 10.0219 6.10052 9.47812ZM2.91484 13.3781C2.91484 13.4031 3.36172 13.2094 4.09635 12.1219C3.86953 12.3187 3.1112 12.8875 2.91484 13.3781ZM8.39583 5H13V15.25C13 15.6656 12.6378 16 12.1875 16H0.8125C0.36224 16 0 15.6656 0 15.25V0.75C0 0.334375 0.36224 0 0.8125 0H7.58333V4.25C7.58333 4.6625 7.94896 5 8.39583 5ZM8.125 10.3687C7.44792 9.9875 6.99766 9.4625 6.67943 8.6875C6.83177 8.10938 7.07214 7.23125 6.88932 6.68125C6.73021 5.7625 5.45391 5.85313 5.27109 6.46875C5.10182 7.04063 5.25755 7.84688 5.54531 8.875C5.1526 9.7375 4.5737 10.8937 4.16406 11.5562C4.16068 11.5562 4.16068 11.5594 4.15729 11.5594C3.23984 11.9937 1.66563 12.95 2.31224 13.6844C2.50182 13.9 2.85391 13.9969 3.0401 13.9969C3.64609 13.9969 4.2487 13.4344 5.10859 12.0656C5.98203 11.8 6.9401 11.4688 7.78307 11.3406C8.51771 11.7094 9.3776 11.95 9.94974 11.95C10.9383 11.95 11.006 10.95 10.6167 10.5938C10.1461 10.1687 8.77839 10.2906 8.125 10.3687ZM12.763 3.28125L9.44531 0.21875C9.29297 0.078125 9.08646 0 8.86979 0H8.66667V4H13V3.80938C13 3.6125 12.9154 3.42188 12.763 3.28125ZM10.2544 11.2594C10.3932 11.175 10.1698 10.8875 8.80547 10.9781C10.0615 11.4719 10.2544 11.2594 10.2544 11.2594Z" fill="#C93737"/>
</svg>
