<svg width="160" height="183" viewBox="0 0 160 183" fill="none" xmlns="http://www.w3.org/2000/svg">
<path d="M40 45.75C40 33.6163 44.2143 21.9797 51.7157 13.3999C59.2172 4.82008 69.3913 0 80 0C90.6087 0 100.783 4.82008 108.284 13.3999C115.786 21.9797 120 33.6163 120 45.75V64.05C120 76.1837 115.786 87.8203 108.284 96.4001C100.783 104.98 90.6087 109.8 80 109.8C69.3913 109.8 59.2172 104.98 51.7157 96.4001C44.2143 87.8203 40 76.1837 40 64.05V45.75ZM0 152.622C24.3081 136.518 51.9088 128.058 80 128.1C109.12 128.1 136.48 136.975 160 152.622V183H0V152.622Z" fill="#E0E0E0"/>
</svg>
