<svg width="12" height="15" viewBox="0 0 12 15" fill="none" xmlns="http://www.w3.org/2000/svg">
<path d="M7 3.98438V0H0.75C0.334375 0 0 0.313477 0 0.703125V14.2969C0 14.6865 0.334375 15 0.75 15H11.25C11.6656 15 12 14.6865 12 14.2969V4.6875H7.75C7.3375 4.6875 7 4.37109 7 3.98438ZM8.78438 7.5H9.53125C9.77188 7.5 9.95 7.70801 9.89688 7.93066L8.70938 12.8525C8.67188 13.0137 8.51875 13.125 8.34375 13.125H7.15625C6.98438 13.125 6.83437 13.0137 6.79375 12.8584C5.9875 9.82617 6.14375 10.4795 5.99375 9.62109H5.97813C5.94375 10.04 5.90312 10.1309 5.17812 12.8584C5.1375 13.0137 4.9875 13.125 4.81563 13.125H3.65625C3.48125 13.125 3.32812 13.0107 3.29063 12.8496L2.10938 7.92773C2.05625 7.70801 2.23438 7.5 2.475 7.5H3.24062C3.41875 7.5 3.575 7.61719 3.60938 7.78418C4.09688 10.0693 4.2375 10.9922 4.26562 11.3643C4.31563 11.0654 4.49375 10.4062 5.18437 7.76953C5.225 7.61133 5.375 7.50293 5.55 7.50293H6.45937C6.63438 7.50293 6.78437 7.61426 6.825 7.77246C7.575 10.7139 7.725 11.4053 7.75 11.5635C7.74375 11.2354 7.66875 11.042 8.425 7.77832C8.45625 7.61426 8.60938 7.5 8.78438 7.5ZM12 3.57129V3.75H8V0H8.19063C8.39062 0 8.58125 0.0732422 8.72188 0.205078L11.7812 3.07617C11.9219 3.20801 12 3.38672 12 3.57129Z" fill="#2F80ED"/>
</svg>
