<?xml version="1.0" standalone="no"?>
<!DOCTYPE svg PUBLIC "-//W3C//DTD SVG 1.1//EN" "http://www.w3.org/Graphics/SVG/1.1/DTD/svg11.dtd" >
<svg xmlns="http://www.w3.org/2000/svg">
<metadata>Generated by IcoMoon</metadata>
<defs>
<font id="icomoon" horiz-adv-x="1024">
<font-face units-per-em="1024" ascent="960" descent="-64" />
<missing-glyph horiz-adv-x="1024" />
<glyph unicode="&#x20;" horiz-adv-x="512" d="" />
<glyph unicode="&#xe900;" horiz-adv-x="735" d="M30.118 785.318h674.635v-819.2h-674.635z" />
<glyph unicode="&#xe901;" horiz-adv-x="735" d="M30.118 815.435h674.635c16.634 0 30.118-13.484 30.118-30.118v0-819.2c0-16.634-13.484-30.118-30.118-30.118v0h-674.635c-16.634 0-30.118 13.484-30.118 30.118v0 819.2c0 16.634 13.484 30.118 30.118 30.118v0zM674.635 755.2h-614.4v-758.965h614.4z" />
<glyph unicode="&#xe902;" horiz-adv-x="735" d="M30.118 755.2c-0.031 0-0.068 0-0.105 0-16.634 0-30.118 13.484-30.118 30.118 0 13.865 9.368 25.541 22.12 29.044l0.211 0.050 530.071 144.565c2.366 0.668 5.084 1.052 7.891 1.052 16.634 0 30.118-13.484 30.118-30.118 0-0.010 0-0.020 0-0.030v0.002-144.565c0-16.634-13.484-30.118-30.118-30.118s-30.118 13.484-30.118 30.118v0 105.111l-492.002-134.144c-2.382-0.683-5.119-1.079-7.948-1.084h-0.003z" />
<glyph unicode="&#xe903;" horiz-adv-x="735" d="M367.435 351.624c53.227 0 96.376 43.149 96.376 96.376s-43.149 96.376-96.376 96.376c-53.227 0-96.376-43.149-96.376-96.376v0c0-53.227 43.149-96.376 96.376-96.376v0z" />
<glyph unicode="&#xe904;" horiz-adv-x="735" d="M367.435 321.506c-69.861 0-126.494 56.633-126.494 126.494s56.633 126.494 126.494 126.494c69.861 0 126.494-56.633 126.494-126.494v0c0-69.861-56.633-126.494-126.494-126.494v0zM367.435 514.259c-36.594 0-66.259-29.665-66.259-66.259s29.665-66.259 66.259-66.259c36.594 0 66.259 29.665 66.259 66.259v0c0 36.594-29.665 66.259-66.259 66.259v0z" />
<glyph unicode="&#xe905;" horiz-adv-x="735" d="M463.812 176.941h-192.753c-16.634 0-30.118 13.484-30.118 30.118s13.484 30.118 30.118 30.118v0h192.753c16.634 0 30.118-13.484 30.118-30.118s-13.484-30.118-30.118-30.118v0z" />
<glyph unicode="&#xe906;" d="M0 960h1024v-1024h-1024z" />
<glyph unicode="&#xe907;" d="M170.65 900.25h682.701c14.138 0 25.6-11.462 25.6-25.6v0-853.299c0-14.138-11.462-25.6-25.6-25.6v0h-682.701c-14.138 0-25.6 11.462-25.6 25.6v0 853.299c0 14.138 11.462 25.6 25.6 25.6v0zM827.699 849.050h-631.45v-802.099h631.501z" />
<glyph unicode="&#xe908;" d="M512 166.4c-14.138 0-25.6 11.462-25.6 25.6v0 512c0 14.138 11.462 25.6 25.6 25.6s25.6-11.462 25.6-25.6v0-512c0-14.138-11.462-25.6-25.6-25.6v0z" />
<glyph unicode="&#xe909;" d="M853.35 166.4h-682.701c-14.138 0-25.6 11.462-25.6 25.6s11.462 25.6 25.6 25.6v0h682.701c14.138 0 25.6-11.462 25.6-25.6s-11.462-25.6-25.6-25.6v0z" />
<glyph unicode="&#xe90a;" d="M725.35 678.4h-426.701c-8.346 0-15.76 3.994-20.433 10.176l-0.047 0.064-128 170.65c-3.196 4.225-5.12 9.568-5.12 15.36 0 14.138 11.462 25.6 25.6 25.6 8.346 0 15.76-3.994 20.433-10.176l0.047-0.064 120.32-160.41h401.050l120.32 160.41c4.72 6.246 12.134 10.24 20.48 10.24 14.138 0 25.6-11.462 25.6-25.6 0-5.792-1.924-11.135-5.167-15.424l0.047 0.064-127.949-170.65c-4.72-6.246-12.134-10.24-20.48-10.24v0z" />
<glyph unicode="&#xe90b;" d="M0 960h1024v-1024h-1024z" />
<glyph unicode="&#xe90c;" d="M128 864h768c41.234-0.036 74.652-33.454 74.688-74.684v-554.692c-0.073-41.207-33.476-74.588-74.684-74.624h-768.004c-41.234 0.036-74.652 33.454-74.688 74.684v554.628c0.036 41.234 33.454 74.652 74.684 74.688h0.004zM896 224c5.903 0 10.688 4.785 10.688 10.688v0 554.624c0 5.903-4.785 10.688-10.688 10.688v0h-768c-5.903 0-10.688-4.785-10.688-10.688v0-554.688c0.036-5.875 4.807-10.624 10.688-10.624 0 0 0 0 0 0v0z" />
<glyph unicode="&#xe90d;" d="M768 629.312h-512c-17.673 0-32 14.327-32 32s14.327 32 32 32v0h512c17.673 0 32-14.327 32-32s-14.327-32-32-32v0z" />
<glyph unicode="&#xe90e;" d="M384 480h-128c-17.673 0-32 14.327-32 32s14.327 32 32 32v0h128c17.673 0 32-14.327 32-32s-14.327-32-32-32v0z" />
<glyph unicode="&#xe90f;" d="M341.312 330.688h-85.312c-17.673 0-32 14.327-32 32s14.327 32 32 32v0h85.312c17.673 0 32-14.327 32-32s-14.327-32-32-32v0z" />
<glyph unicode="&#xe910;" d="M640 256c70.692 0 128 57.308 128 128s-57.308 128-128 128c-70.692 0-128-57.308-128-128v0c0-70.692 57.308-128 128-128v0z" />
<glyph unicode="&#xe911;" d="M640 224c-88.366 0-160 71.634-160 160s71.634 160 160 160c88.366 0 160-71.634 160-160v0c0-88.366-71.634-160-160-160v0zM640 480c-53.019 0-96-42.981-96-96s42.981-96 96-96c53.019 0 96 42.981 96 96v0c0 53.019-42.981 96-96 96v0z" />
<glyph unicode="&#xe912;" d="M640 106.688l85.312-42.688v224.576c-19.354-20.297-46.603-32.918-76.8-32.918-2.996 0-5.963 0.124-8.896 0.368l0.384-0.026c-2.606-0.226-5.638-0.355-8.701-0.355-30.033 0-57.172 12.387-76.588 32.331l-0.023 0.024v-224z" />
<glyph unicode="&#xe913;" d="M725.312 32c-5.227 0-10.16 1.254-14.517 3.476l0.181-0.084-70.976 35.52-71.040-35.52c-4.159-2.118-9.071-3.359-14.272-3.359-17.661 0-31.981 14.308-32 31.965v224.002c-0.003 0.175-0.005 0.382-0.005 0.59 0 14.236 9.168 26.331 21.921 30.702l0.228 0.068c2.918 1.006 6.279 1.587 9.777 1.587 10.456 0 19.699-5.191 25.293-13.137l0.065-0.098c14.164-12.418 32.844-19.993 53.292-19.993 2.372 0 4.721 0.102 7.041 0.302l-0.302-0.021c1.983-0.175 4.29-0.275 6.62-0.275 20.51 0 39.214 7.73 53.357 20.436l-0.074-0.065c5.645 8.173 14.962 13.46 25.515 13.46 3.464 0 6.794-0.57 9.903-1.62l-0.218 0.064c13.048-4.402 22.277-16.53 22.277-30.813 0-0.192-0.002-0.385-0.005-0.576v0.029-224.64c0-17.673-14.327-32-32-32v0zM640 138.688c5.227 0 10.16-1.254 14.517-3.476l-0.181 0.084 39.040-19.2v115.84c-15.481-5.038-33.296-7.943-51.789-7.943-0.558 0-1.115 0.003-1.672 0.008l0.085-0.001c-0.473-0.005-1.033-0.007-1.593-0.007-18.46 0-36.252 2.858-52.959 8.154l1.239-0.339v-116.032l39.040 19.2c4.135 2.233 9.032 3.593 14.235 3.711l0.037 0.001z" />
<glyph unicode="&#xe914;" glyph-name="noteIcon" d="M0 448c0-282.772 229.23-512 512-512 282.772 0 512 229.228 512 512 0 282.77-229.228 512-512 512-282.77 0-512-229.23-512-512zM930.89 448.003c0-231.359-187.546-418.91-418.89-418.91-231.346 0-418.889 187.551-418.889 418.91 0 231.357 187.543 418.91 418.889 418.91 231.344 0 418.89-187.552 418.89-418.91zM512.019 168.909c25.715 0 46.561 20.838 46.561 46.546s-20.846 46.546-46.561 46.546c-25.714 0-46.561-20.838-46.561-46.546s20.846-46.546 46.561-46.546zM558.71 727.353h-93.121v-372.366h93.121v372.366z" />
<glyph unicode="&#xe915;" glyph-name="downloadIcon" horiz-adv-x="1182" d="M724.613 625.563v334.437h-334.437v-334.437h-278.697l445.916-445.916 445.913 445.916h-278.694zM0 68.167h1114.789v-111.474h-1114.789v111.474z" />
<glyph unicode="&#xe916;" glyph-name="cancelIcon" d="M156.308 79.725c-48.902 47.232-87.907 103.725-114.74 166.195-26.833 62.464-40.958 129.648-41.548 197.631s12.364 135.404 38.108 198.326c25.744 62.923 63.761 120.088 111.835 168.161s105.238 86.091 168.161 111.835c62.923 25.744 130.343 38.698 198.326 38.108s135.167-14.715 197.631-41.548c62.47-26.834 118.963-65.838 166.195-114.74 93.267-96.564 144.87-225.896 143.706-360.141s-55.014-262.661-149.939-357.592c-94.931-94.925-223.347-148.774-357.592-149.939s-263.578 50.438-360.141 143.706zM589.972 441.708l144.895 144.896-72.192 72.192-144.383-144.896-144.896 144.896-72.192-72.192 144.896-144.896-144.896-144.895 72.192-72.192 144.896 144.895 144.895-144.895 72.192 72.192-144.895 144.895h-0.512z" />
<glyph unicode="&#xe917;" glyph-name="refreshIcon" horiz-adv-x="1728" d="M426.667 960c-45.264 0-88.673-17.981-120.68-49.987s-49.987-75.416-49.987-120.68v-512.002h-256l341.333-341.331 341.336 341.331h-256.002v512.002h597.333l170.669 170.667h-768.002zM1280 618.667h-256l341.331 341.333 341.338-341.333h-256v-511.998c0-45.267-17.984-88.678-49.99-120.685-32.006-32-75.418-49.984-120.678-49.984h-768l170.669 170.669h597.331v511.998z" />
<glyph unicode="&#xe918;" glyph-name="notificationsIcon" horiz-adv-x="819" d="M716.8 524.8v-256l102.4-102.4v-51.2h-819.2v51.2l102.4 102.4v256c0 157.696 83.456 288.768 230.4 323.584v34.816c0 42.496 34.304 76.8 76.8 76.8s76.8-34.304 76.8-76.8v-34.816c146.432-34.816 230.4-166.4 230.4-323.584zM512 64c0-56.32-46.080-102.4-102.4-102.4-56.832 0-102.4 46.080-102.4 102.4h204.8z" />
<glyph unicode="&#xe919;" glyph-name="deleteIcon" horiz-adv-x="853" d="M204.8 857.6l102.4 102.4h204.8l102.4-102.4h204.8v-102.4h-819.2v102.4h204.8zM51.2 652.8h716.8l-51.2-716.8h-614.4l-51.2 716.8zM307.2 550.4v-512h51.2v512h-51.2zM460.8 550.4v-512h51.2v512h-51.2z" />
<glyph unicode="&#xe91a;" glyph-name="addUserIcon" horiz-adv-x="1408" d="M136.533 755.2h-136.533v-136.533h136.533v-136.534h136.534v136.534h136.533v136.533h-136.533v136.533h-136.534v-136.533zM614.4 755.2c0 54.316 21.577 106.408 59.987 144.815 38.406 38.407 90.496 59.985 144.813 59.985s106.406-21.577 144.813-59.985c38.413-38.407 59.987-90.499 59.987-144.815v-136.533c0-54.317-21.574-106.408-59.987-144.816-38.406-38.407-90.496-59.984-144.813-59.984s-106.406 21.577-144.813 59.984c-38.41 38.408-59.987 90.499-59.987 144.816v136.533zM1365.331 131.245c-165.978 95.987-354.394 146.387-546.131 146.086-198.656 0-385.707-53.248-546.133-146.086v-195.245h1092.264v195.245z" />
<glyph unicode="&#xe91b;" glyph-name="sendIcon" d="M0 960l1024-512-1024-512v1024zM0 550.4v-204.8l512 102.4-512 102.4z" />
<glyph unicode="&#xe91c;" glyph-name="largeEnvelop" horiz-adv-x="1280" d="M1152 960c33.949 0 66.505-13.486 90.511-37.49 24.002-24.004 37.489-56.562 37.489-90.51v-768c0-33.949-13.488-66.505-37.489-90.511-24.005-24.005-56.561-37.489-90.511-37.489h-1024c-33.948 0-66.505 13.484-90.51 37.489s-37.49 56.561-37.49 90.511v768c0 70.4 57.6 128 128 128h1024zM872.32 377.6l407.68-313.6v128l-327.68 249.6 327.68 262.4v128l-640-512-640 512v-128l327.68-262.4-327.68-249.6v-128l407.68 313.6 232.32-185.6 232.32 185.6z" />
<glyph unicode="&#xe91d;" glyph-name="filterIcon" d="M0 746.050l342.254-391.157v-418.893l293.36 110.012v308.881l342.252 391.157v116.161c0 54.008-43.779 97.789-97.785 97.789h-782.294c-54.006 0-97.787-43.782-97.787-97.789v-116.161zM880.135 862.2v-48.867h-782.402v48.867h782.402zM156.588 715.534h664.687l-256.761-293.401h-151.162l-256.765 293.401zM440.033 324.4v-247.265l97.8 36.666v210.599h-97.8z" />
<glyph unicode="&#xe91e;" glyph-name="closeIcon" d="M512 533.324l-426.677 426.676-85.323-85.323 426.676-426.677-426.676-426.676 85.323-85.324 426.677 426.676 426.676-426.676 85.324 85.324-426.676 426.676 426.676 426.677-85.324 85.323-426.676-426.676z" />
<glyph unicode="&#xe91f;" glyph-name="arrowDownIcon" horiz-adv-x="1638" d="M1505.341 960l133.059-143.079-819.2-880.921-819.2 880.921 133.054 143.079 686.146-737.841 686.141 737.841z" />
<glyph unicode="&#xe920;" glyph-name="searchIcon" horiz-adv-x="1088" d="M656.096 210.573c-67.459-45.626-149.226-72.339-237.353-72.339-231.265 0-418.743 183.961-418.743 410.884s187.478 410.882 418.743 410.882c231.267 0 418.742-183.958 418.742-410.882 0-86.472-27.219-166.705-73.715-232.894l279.821-274.573-107.667-105.651-279.827 274.573zM418.716 287.571c147.199 0 266.526 117.068 266.526 261.473s-119.327 261.47-266.526 261.47c-147.199 0-266.528-117.064-266.528-261.47s119.329-261.473 266.528-261.473z" />
<glyph unicode="&#xe921;" glyph-name="pdfIcon" horiz-adv-x="832" d="M394.116 447.8c-10.833 32-10.616 93.8-4.333 93.8 18.2 0 16.467-73.8 4.333-93.8zM390.433 353.4c-16.684-40.402-37.484-86.604-61.533-125.4 39.65 13.997 84.5 34.4 136.284 43.802-27.517 19.2-53.95 46.797-74.75 81.599zM186.55 103.802c0-1.6 28.6 10.797 75.617 80.397-14.516-12.595-63.050-48.998-75.617-80.397zM537.333 640h294.667v-656c0-26.598-23.181-48-52-48h-728c-28.817 0-52 21.402-52 48v928c0 26.6 23.183 48 52 48h433.333v-272c0-26.4 23.4-48 52-48zM520 296.403c-43.333 24.397-72.15 57.997-92.516 107.597 9.75 37 25.133 93.2 13.433 128.4-10.183 58.8-91.866 53-103.567 13.6-10.833-36.6-0.867-88.2 17.55-154-25.133-55.2-62.183-129.197-88.4-171.597-0.216 0-0.216-0.205-0.433-0.205-58.717-27.795-159.466-88.998-118.083-136 12.133-13.798 34.667-20 46.583-20 38.783 0 77.35 36 132.383 123.603 55.9 16.998 117.217 38.195 171.167 46.4 47.017-23.603 102.050-39.002 138.667-39.002 63.268 0 67.601 64 42.685 86.797-30.118 27.206-117.652 19.405-159.469 14.406zM816.832 750l-212.332 196c-9.75 9-22.966 14-36.833 14h-13v-256h277.333v12.2c0 12.6-5.414 24.8-15.168 33.8zM656.282 239.398c8.883 5.402-5.414 23.802-92.732 18.003 80.386-31.603 92.732-18.003 92.732-18.003z" />
<glyph unicode="&#xe922;" glyph-name="userIcon" d="M256 704c0 67.896 26.971 133.010 74.981 181.019s113.123 74.981 181.019 74.981c67.896 0 133.010-26.971 181.019-74.981 48.013-48.009 74.981-113.123 74.981-181.019v-102.4c0-67.896-26.968-133.010-74.981-181.019-48.009-48.010-113.123-74.981-181.019-74.981s-133.010 26.971-181.019 74.981c-48.010 48.009-74.981 113.123-74.981 181.019v102.4zM0 105.984c155.572 90.112 332.216 137.45 512 137.216 186.368 0 361.472-49.664 512-137.216v-169.984h-1024v169.984z" />
<glyph unicode="&#xe923;" glyph-name="windows" d="M546.133-24.615h477.867v425.354h-477.867v-425.354zM0-24.615h498.347v425.354h-498.347v-425.354zM546.133 448h477.867v472.615h-477.867v-472.615zM0 448h498.347v472.615h-498.347v-472.615z" />
<glyph unicode="&#xe924;" glyph-name="cross" d="M512 533.323l-426.677 426.677-85.323-85.323 426.677-426.677-426.677-426.675 85.323-85.325 426.677 426.677 426.675-426.677 85.325 85.325-426.677 426.675 426.677 426.677-85.325 85.323-426.675-426.677z" />
<glyph unicode="&#xe925;" glyph-name="check" d="M0 422.4l102.4 102.4 256-256 563.2 563.2 102.4-102.4-665.6-665.6-358.4 358.4z" />
<glyph unicode="&#xe926;" glyph-name="upload" d="M657.385 498.568v-303.405h-303.41v303.405h-252.839l404.543 404.543 404.543-404.543h-252.837zM0 94.026h1011.359v-101.137h-1011.359v101.137z" />
<glyph unicode="&#xe927;" glyph-name="download" d="M0 857.6c0 56.32 46.080 102.4 102.4 102.4h819.2c27.156 0 53.202-10.789 72.407-29.992s29.993-45.25 29.993-72.408v-819.2c0-27.156-10.788-53.202-29.993-72.407s-45.251-29.993-72.407-29.993h-819.2c-27.158 0-53.204 10.788-72.408 29.993s-29.992 45.251-29.992 72.407v819.2zM716.8 243.2h204.8v614.4h-819.2v-614.4h204.8c0-56.32 46.080-102.4 102.4-102.4h204.8c27.156 0 53.202 10.788 72.407 29.993s29.993 45.251 29.993 72.407zM460.8 550.4v153.6h102.4v-153.6h153.6l-204.8-204.8-204.8 204.8h153.6z" />
<glyph unicode="&#xe928;" glyph-name="excel" d="M581.333 688v272h-433.333c-28.817 0-52-21.4-52-48v-928c0-26.598 23.183-48 52-48h728c28.819 0 52 21.402 52 48v656h-294.667c-28.6 0-52 21.6-52 48zM711.55 475l-130.217-187 130.217-187.002c11.050-16-1.3-36.998-21.884-36.998h-75.617c-9.533 0-18.417 4.8-22.966 12.602-42.467 72.397-79.084 137.402-79.084 137.402-13.867-29.6-21.667-40-79.3-137.6-4.55-7.802-13.217-12.602-22.75-12.602h-75.617c-20.584 0-32.933 20.998-21.884 36.998l130.65 187.002-130.65 186.998c-11.267 16 1.3 37 21.884 37h75.4c9.533 0 18.417-4.799 22.967-12.6 56.55-97.6 43.333-67.2 79.3-137 0 0 13.217 23.4 79.3 137 4.55 7.8 13.434 12.6 22.967 12.6h75.4c20.584 0.2 32.934-20.799 21.884-36.799zM928 716.2v-12.2h-277.333v256h13.217c13.866 0 27.083-5 36.833-14l212.115-196c9.754-9 15.168-21.2 15.168-33.8z" />
<glyph unicode="&#xe929;" glyph-name="plus" d="M563.2 499.2h204.8v-102.4h-204.8v-204.8h-102.4v204.8h-204.8v102.4h204.8v204.8h102.4v-204.8zM512-64c-135.791 0-266.020 53.946-362.038 149.958-96.019 96.019-149.962 226.253-149.962 362.042 0 135.791 53.943 266.020 149.962 362.038s226.248 149.962 362.038 149.962c135.789 0 266.022-53.943 362.042-149.962 96.013-96.019 149.958-226.248 149.958-362.038s-53.946-266.022-149.958-362.042c-96.019-96.013-226.253-149.958-362.042-149.958zM512 38.4c108.633 0 212.819 43.155 289.632 119.968s119.968 180.999 119.968 289.632c0 108.633-43.155 212.816-119.968 289.631s-180.999 119.969-289.632 119.969c-108.633 0-212.816-43.154-289.631-119.969s-119.969-180.998-119.969-289.631c0-108.633 43.154-212.819 119.969-289.632s180.998-119.968 289.631-119.968z" />
<glyph unicode="&#xe92a;" glyph-name="plan" d="M430.080 345.6h-286.72l-92.16-153.6h-51.2v512h51.2l92.16-153.6h286.72l-122.88 409.6h102.4l245.76-409.6h266.24c27.156 0 53.202-10.788 72.407-29.992s29.993-45.25 29.993-72.408c0-27.156-10.788-53.202-29.993-72.407s-45.251-29.993-72.407-29.993h-266.24l-245.76-409.6h-102.4l122.88 409.6z" />
<glyph unicode="&#xe92b;" glyph-name="lock" d="M185.6 550.4v102.4c0 81.475 32.365 159.612 89.977 217.223s135.748 89.977 217.223 89.977c81.475 0 159.612-32.366 217.222-89.977 57.613-57.611 89.978-135.748 89.978-217.223h-153.6v-102.4h204.8c27.155 0 53.203-10.788 72.41-29.992 19.2-19.204 29.99-45.249 29.99-72.408v-409.6c0-27.155-10.79-53.203-29.99-72.41-19.206-19.2-45.254-29.99-72.41-29.99h-716.8c-27.158 0-53.204 10.79-72.408 29.99-19.204 19.206-29.992 45.254-29.992 72.41v409.6c0 56.32 46.080 102.4 102.4 102.4h51.2zM441.6 205.824v-116.224h102.4v116.224c19.522 11.27 34.779 28.666 43.405 49.491 8.626 20.832 10.14 43.917 4.305 65.693-5.834 21.773-18.69 41.014-36.573 54.737s-39.795 21.16-62.337 21.16c-22.541 0-44.454-7.438-62.337-21.16s-30.739-32.963-36.573-54.737c-5.834-21.776-4.321-44.861 4.305-65.693 8.627-20.826 23.884-38.221 43.405-49.491zM339.2 652.8v-102.4h307.2v102.4c0 40.737-16.183 79.806-44.988 108.612s-67.875 44.988-108.612 44.988c-40.737 0-79.806-16.183-108.612-44.988s-44.988-67.875-44.988-108.612z" />
<glyph unicode="&#xe92c;" glyph-name="users" d="M344.317 550.396c-54.316 0-106.407 21.577-144.814 59.984s-59.984 90.499-59.984 144.815c0 54.316 21.577 106.407 59.984 144.814s90.499 59.984 144.814 59.984c54.316 0 106.408-21.577 144.815-59.984s59.984-90.499 59.984-144.814c0-54.316-21.577-106.408-59.984-144.815s-90.499-59.984-144.815-59.984zM344.317 499.196c110.079 0 215.039-20.48 312.318-55.808l-56.319-302.588h-64l-38.399-204.8h-307.198l-38.399 204.8h-64l-56.32 302.588c100.078 36.588 205.762 55.472 312.317 55.808zM769.786 490.492c67.584-9.216 132.608-24.576 194.56-47.104l-56.832-302.588h-64l-38.4-204.8h-202.75l18.944 102.4h63.998l84.48 452.092zM651.516 959.992c29.969 0.257 59.633-6.067 86.891-18.526s51.45-30.748 70.867-53.578c19.418-22.829 33.587-49.643 41.51-78.548s9.408-59.196 4.346-88.735c-5.069-29.54-16.55-57.609-33.645-82.226-17.101-24.616-39.386-45.181-65.299-60.241s-54.816-24.25-84.666-26.921c-29.852-2.67-59.926 1.244-88.099 11.466 44.237 54.406 68.388 122.388 68.388 192.511s-24.15 138.104-68.388 192.51c22.015 7.168 44.031 12.288 68.095 12.288z" />
<glyph unicode="&#xe92d;" glyph-name="company" d="M0 652.8l512 307.2 512-307.2v-102.4h-1024v102.4zM0 38.4h1024v-102.4h-1024v102.4zM102.4 140.8h819.2v-102.4h-819.2v102.4zM102.4 550.4h204.8v-409.6h-204.8v409.6zM409.6 550.4h204.8v-409.6h-204.8v409.6zM716.8 550.4h204.8v-409.6h-204.8v409.6z" />
<glyph unicode="&#xe92e;" glyph-name="discgraph" d="M1024 397.951c-9.715-96.658-46.662-188.568-106.541-265.061s-140.237-134.426-231.738-167.059c-91.496-32.634-190.376-38.637-285.148-17.299-94.772 21.331-181.545 69.114-250.236 137.805s-116.478 155.469-137.81 250.238c-21.332 94.772-15.332 193.652 17.303 285.149s90.564 171.855 167.056 231.736c76.493 59.88 168.407 96.825 265.063 106.541v-562.049h562.049zM1019.891 531.405h-424.486v424.488c106.355-17.25 204.582-67.53 280.774-143.717 76.186-76.187 126.464-174.417 143.712-280.771z" />
<glyph unicode="&#xe92f;" glyph-name="settings" d="M201.728 627.2l-88.064 146.432 72.704 72.704 146.432-88.064c26.624 15.36 56.32 27.648 87.040 35.84l40.96 165.888h102.4l40.96-165.888c30.72-8.192 60.416-20.48 87.040-35.84l146.432 88.064 72.704-72.704-88.064-146.432c15.36-26.624 27.648-56.32 35.84-87.040l165.888-40.96v-102.4l-165.888-40.96c-8.192-30.72-20.48-60.416-35.84-87.040l88.064-146.432-72.704-72.704-146.432 88.064c-26.624-15.36-56.32-27.648-87.040-35.84l-40.96-165.888h-102.4l-40.96 165.888c-30.72 8.192-60.416 20.48-87.040 35.84l-146.432-88.064-72.704 72.704 88.064 146.432c-15.36 26.624-27.648 56.32-35.84 87.040l-165.888 40.96v102.4l165.888 40.96c8.192 30.72 20.48 60.416 35.84 87.040zM512 294.4c40.737 0 79.806 16.186 108.612 44.988 28.803 28.806 44.988 67.875 44.988 108.612s-16.186 79.806-44.988 108.612c-28.806 28.805-67.875 44.988-108.612 44.988s-79.806-16.183-108.612-44.988c-28.805-28.806-44.988-67.875-44.988-108.612s16.183-79.806 44.988-108.612c28.806-28.803 67.875-44.988 108.612-44.988z" />
<glyph unicode="&#xe930;" glyph-name="accomodation" horiz-adv-x="1280" d="M128 320h1152v-384h-128v128h-1024v-128h-128v1024h128v-640zM640 704h512c33.946 0 66.502-13.485 90.509-37.491s37.491-56.562 37.491-90.509v-192h-640v320zM384 384c-50.922 0-99.757 20.228-135.764 56.236s-56.236 84.843-56.236 135.764c0 50.922 20.228 99.757 56.236 135.764s84.843 56.236 135.764 56.236c50.922 0 99.757-20.228 135.764-56.236s56.236-84.843 56.236-135.764c0-50.922-20.228-99.757-56.236-135.764s-84.843-56.236-135.764-56.236z" />
<glyph unicode="&#xe931;" glyph-name="shield" horiz-adv-x="912" d="M456.113 960c5.354 0 10.525-0.784 15.405-2.244l-0.38 0.098 402.452-117.516c22.508-6.718 38.635-27.232 38.635-51.514v-240.989c0-0.164 0-0.357 0-0.551 0-281.844-181.832-521.218-434.587-607.213l-4.516-1.334c-5.060-1.743-10.891-2.75-16.957-2.75s-11.897 1.006-17.334 2.862l0.378-0.112c-257.329 87.315-439.21 326.728-439.21 608.622 0 0.205 0 0.41 0 0.615v-0.031 240.881c0 24.282 16.128 44.796 38.256 51.416l0.38 0.098 402.613 117.516c4.448 1.347 9.561 2.13 14.855 2.146h0.009zM804.905 748.578l-348.792 101.847-348.792-101.847v-200.636c0-0.162 0-0.354 0-0.546 0-228.435 143.415-423.374 345.119-499.69l3.674-1.22c205.373 77.501 348.792 272.42 348.792 500.835 0 0.18 0 0.36 0 0.541v-0.027z" />
<glyph unicode="&#xe932;" glyph-name="textfile" horiz-adv-x="832" d="M102.4 38.4h614.4v614.4h-204.8v204.8h-409.6v-819.2zM0-12.8v972.8h614.4l204.8-204.8v-819.2h-819.2v51.2z" />
<glyph unicode="&#xe933;" glyph-name="logout" horiz-adv-x="661" d="M355.731 604.269l73.18-109.769c15.753-23.886 51.329-42.688 79.786-42.688h151.948v101.637h-152.457l-73.18 109.769c-19.568 27.529-43.616 51.578-71.145 71.147l-67.081 44.721c-12.99 7.796-27.782 12.083-42.927 12.439s-30.123-3.23-43.465-10.407l-210.39-126.031v-254.095h101.638v203.277l101.638 50.818-152.457-711.463h101.638l119.424 388.763 83.85-83.852v-304.911h101.64v406.551l-137.212 137.209 35.572 116.885zM406.551 756.724c26.954 0 52.809 10.708 71.868 29.769s29.769 44.913 29.769 71.869c0 26.956-10.709 52.808-29.769 71.869s-44.914 29.769-71.868 29.769c-26.958 0-52.809-10.708-71.868-29.769-19.062-19.061-29.77-44.913-29.77-71.869s10.708-52.808 29.77-71.869c19.060-19.061 44.911-29.769 71.868-29.769z" />
<glyph unicode="&#xe934;" glyph-name="admin" d="M0 857.6c0 56.32 46.080 102.4 102.4 102.4h819.2c27.156 0 53.202-10.789 72.407-29.992s29.993-45.25 29.993-72.408v-819.2c0-27.156-10.788-53.202-29.993-72.407s-45.251-29.993-72.407-29.993h-819.2c-27.158 0-53.204 10.788-72.408 29.993s-29.992 45.251-29.992 72.407v819.2zM358.4 652.8v-102.4c0-40.737 16.183-79.806 44.988-108.611s67.874-44.989 108.612-44.989c40.735 0 79.805 16.184 108.611 44.989s44.989 67.873 44.989 108.611v102.4c0 40.737-16.184 79.806-44.989 108.612s-67.876 44.988-108.611 44.988c-40.737 0-79.806-16.183-108.612-44.988s-44.988-67.874-44.988-108.612zM921.6 184.832c-124.488 71.992-265.795 109.793-409.6 109.568-148.992 0-289.28-39.936-409.6-109.568v-146.432h819.2v146.432z" />
<glyph unicode="&#xe935;" d="M0 960h1024v-1024h-1024z" />
<glyph unicode="&#xe936;" d="M128 821.312h768c41.234-0.036 74.652-33.454 74.688-74.684v-597.316c-0.073-41.207-33.476-74.588-74.684-74.624h-768.004c-41.212 0.036-74.615 33.417-74.688 74.617v597.383c0.073 41.207 33.476 74.588 74.684 74.624h0.004zM896 138.688c5.903 0 10.688 4.785 10.688 10.688v0 597.312c-0.036 5.875-4.807 10.624-10.688 10.624 0 0 0 0 0 0h-768c-5.903 0-10.688-4.785-10.688-10.688v0-597.312c0.036-5.875 4.807-10.624 10.688-10.624 0 0 0 0 0 0v0z" />
<glyph unicode="&#xe937;" d="M362.688 394.688c-64.79 0-117.312 52.522-117.312 117.312s52.522 117.312 117.312 117.312c64.79 0 117.312-52.522 117.312-117.312v0c-0.073-64.76-52.552-117.239-117.305-117.312h-0.007zM362.688 565.376c-29.443 0-53.312-23.869-53.312-53.312s23.869-53.312 53.312-53.312c29.421 0 53.276 23.832 53.312 53.244v0.004c-0.036 29.429-23.883 53.276-53.309 53.312h-0.003z" />
<glyph unicode="&#xe938;" d="M490.688 266.688c-17.673 0-32 14.327-32 32v0c0 53.019-42.981 96-96 96s-96-42.981-96-96v0c0-17.673-14.327-32-32-32s-32 14.327-32 32v0c0 88.366 71.634 160 160 160s160-71.634 160-160v0c0-17.673-14.327-32-32-32v0z" />
<glyph unicode="&#xe939;" d="M768 501.312h-170.688c-17.673 0-32 14.327-32 32s14.327 32 32 32v0h170.688c17.673 0 32-14.327 32-32s-14.327-32-32-32v0z" />
<glyph unicode="&#xe93a;" d="M768 330.688h-128c-17.673 0-32 14.327-32 32s14.327 32 32 32v0h128c17.673 0 32-14.327 32-32s-14.327-32-32-32v0z" />
<glyph unicode="&#xe93b;" d="M0 960h1024v-1024h-1024z" />
<glyph unicode="&#xe93c;" d="M128 864h768c41.234-0.036 74.652-33.454 74.688-74.684v-554.692c-0.073-41.207-33.476-74.588-74.684-74.624h-768.004c-41.234 0.036-74.652 33.454-74.688 74.684v554.628c0.036 41.234 33.454 74.652 74.684 74.688h0.004zM896 224c5.903 0 10.688 4.785 10.688 10.688v0 554.624c0 5.903-4.785 10.688-10.688 10.688v0h-768c-5.903 0-10.688-4.785-10.688-10.688v0-554.688c0.036-5.875 4.807-10.624 10.688-10.624 0 0 0 0 0 0v0z" />
<glyph unicode="&#xe93d;" d="M768 629.312h-512c-17.673 0-32 14.327-32 32s14.327 32 32 32v0h512c17.673 0 32-14.327 32-32s-14.327-32-32-32v0z" />
<glyph unicode="&#xe93e;" d="M384 480h-128c-17.673 0-32 14.327-32 32s14.327 32 32 32v0h128c17.673 0 32-14.327 32-32s-14.327-32-32-32v0z" />
<glyph unicode="&#xe93f;" d="M341.312 330.688h-85.312c-17.673 0-32 14.327-32 32s14.327 32 32 32v0h85.312c17.673 0 32-14.327 32-32s-14.327-32-32-32v0z" />
<glyph unicode="&#xe940;" d="M640 256c70.692 0 128 57.308 128 128s-57.308 128-128 128c-70.692 0-128-57.308-128-128v0c0-70.692 57.308-128 128-128v0z" />
<glyph unicode="&#xe941;" d="M640 224c-88.366 0-160 71.634-160 160s71.634 160 160 160c88.366 0 160-71.634 160-160v0c0-88.366-71.634-160-160-160v0zM640 480c-53.019 0-96-42.981-96-96s42.981-96 96-96c53.019 0 96 42.981 96 96v0c0 53.019-42.981 96-96 96v0z" />
<glyph unicode="&#xe942;" d="M640 106.688l85.312-42.688v224.576c-19.354-20.297-46.603-32.918-76.8-32.918-2.996 0-5.963 0.124-8.896 0.368l0.384-0.026c-2.606-0.226-5.638-0.355-8.701-0.355-30.033 0-57.172 12.387-76.588 32.331l-0.023 0.024v-224z" />
<glyph unicode="&#xe943;" d="M725.312 32c-5.227 0-10.16 1.254-14.517 3.476l0.181-0.084-70.976 35.52-71.040-35.52c-4.159-2.118-9.071-3.359-14.272-3.359-17.661 0-31.981 14.308-32 31.965v224.002c-0.003 0.175-0.005 0.382-0.005 0.59 0 14.236 9.168 26.331 21.921 30.702l0.228 0.068c2.918 1.006 6.279 1.587 9.777 1.587 10.456 0 19.699-5.191 25.293-13.137l0.065-0.098c14.164-12.418 32.844-19.993 53.292-19.993 2.372 0 4.721 0.102 7.041 0.302l-0.302-0.021c1.983-0.175 4.29-0.275 6.62-0.275 20.51 0 39.214 7.73 53.357 20.436l-0.074-0.065c5.645 8.173 14.962 13.46 25.515 13.46 3.464 0 6.794-0.57 9.903-1.62l-0.218 0.064c13.048-4.402 22.277-16.53 22.277-30.813 0-0.192-0.002-0.385-0.005-0.576v0.029-224.64c0-17.673-14.327-32-32-32v0zM640 138.688c5.227 0 10.16-1.254 14.517-3.476l-0.181 0.084 39.040-19.2v115.84c-15.481-5.038-33.296-7.943-51.789-7.943-0.558 0-1.115 0.003-1.672 0.008l0.085-0.001c-0.473-0.005-1.033-0.007-1.593-0.007-18.46 0-36.252 2.858-52.959 8.154l1.239-0.339v-116.032l39.040 19.2c4.135 2.233 9.032 3.593 14.235 3.711l0.037 0.001z" />
<glyph unicode="&#xe944;" glyph-name="planeSlant" horiz-adv-x="1075" d="M821.197-64l53.192 52.086-121.902 605.092 252.672 252.675c26.598 26.597 26.598 68.71 0 94.199-26.593 26.597-68.71 26.597-94.198 0l-253.783-251.567-605.091 121.905-52.087-52.086 480.97-246.026-246.026-247.133-130.771 26.598-52.086-52.091 166.234-85.33 85.334-166.236 52.086 52.086-26.597 129.664 246.028 247.132 246.026-480.968z" />
<glyph unicode="&#xe945;" d="M0 960h1024v-1024h-1024z" />
<glyph unicode="&#xe946;" d="M128 870.4h768c44.739-0.058 80.991-36.311 81.050-81.044v-554.707c-0.058-44.739-36.311-80.991-81.044-81.050h-768.006c-44.739 0.058-80.991 36.311-81.050 81.044v554.707c0.058 44.739 36.311 80.991 81.044 81.050h0.006zM896 230.4c2.347 0 4.25 1.903 4.25 4.25v554.701c0 2.347-1.903 4.25-4.25 4.25v0h-768c-2.347 0-4.25-1.903-4.25-4.25v0-554.701c0-2.347 1.903-4.25 4.25-4.25v0z" />
<glyph unicode="&#xe947;" d="M768 622.899h-512c-21.208 0-38.4 17.192-38.4 38.4s17.192 38.4 38.4 38.4v0h512c21.208 0 38.4-17.192 38.4-38.4s-17.192-38.4-38.4-38.4v0z" />
<glyph unicode="&#xe948;" d="M384 473.6h-128c-21.208 0-38.4 17.192-38.4 38.4s17.192 38.4 38.4 38.4v0h128c21.208 0 38.4-17.192 38.4-38.4s-17.192-38.4-38.4-38.4v0z" />
<glyph unicode="&#xe949;" d="M341.35 324.301h-85.35c-21.208 0-38.4 17.192-38.4 38.4s17.192 38.4 38.4 38.4v0h85.35c21.208 0 38.4-17.192 38.4-38.4s-17.192-38.4-38.4-38.4v0z" />
<glyph unicode="&#xe94a;" d="M640 217.6c-91.9 0-166.4 74.5-166.4 166.4s74.5 166.4 166.4 166.4c91.9 0 166.4-74.5 166.4-166.4v0c-0.116-91.853-74.547-166.284-166.389-166.4h-0.011zM640 473.6c-49.485 0-89.6-40.115-89.6-89.6s40.115-89.6 89.6-89.6c49.485 0 89.6 40.115 89.6 89.6v0c-0.058 49.461-40.139 89.542-89.595 89.6h-0.005z" />
<glyph unicode="&#xe94b;" d="M725.299 25.6c-0.003 0-0.006 0-0.009 0-6.248 0-12.148 1.494-17.36 4.145l0.218-0.101-68.147 34.099-68.147-34.099c-4.998-2.55-10.9-4.044-17.152-4.044-21.207 0-38.399 17.192-38.4 38.399v0 224c-0.006 0.264-0.010 0.575-0.010 0.887 0 17.146 11.046 31.712 26.41 36.97l0.275 0.082c3.459 1.189 7.445 1.875 11.591 1.875 12.549 0 23.629-6.287 30.262-15.884l0.080-0.123c13.151-10.988 30.24-17.66 48.886-17.66 2.184 0 4.347 0.092 6.484 0.271l-0.279-0.019c1.829-0.158 3.957-0.248 6.106-0.248 18.662 0 35.736 6.796 48.882 18.049l-0.103-0.086c6.705 9.874 17.881 16.275 30.552 16.275 4.106 0 8.055-0.672 11.743-1.913l-0.26 0.076c15.719-5.294 26.838-19.9 26.838-37.103 0-0.294-0.003-0.588-0.010-0.88l0.001 0.044v-224.614c0-21.208-17.192-38.4-38.4-38.4v0zM640 145.101c6.252 0 12.154-1.495 17.37-4.146l-0.218 0.101 29.747-14.899v97.28c-13.77-3.709-29.579-5.84-45.886-5.84-0.374 0-0.748 0.001-1.122 0.003h0.058c-0.346-0.002-0.754-0.004-1.163-0.004-16.267 0-32.044 2.093-47.078 6.025l1.291-0.287v-97.28l29.798 14.746c4.995 2.641 10.906 4.223 17.179 4.301h0.024z" />
<glyph unicode="&#xe94c;" glyph-name="testTube" horiz-adv-x="535" d="M493.202 875.451h-450.928c-23.348 0-42.274 18.927-42.274 42.274s18.927 42.274 42.274 42.274v0h450.928c23.348 0 42.274-18.927 42.274-42.274s-18.927-42.274-42.274-42.274v0zM267.738-63.944c-150.159 0-267.738 80.491-267.738 183.189v657.565c0 23.348 18.927 42.274 42.274 42.274v0h450.928c23.348 0 42.274-18.927 42.274-42.274v0-657.565c0-102.755-117.579-183.189-267.738-183.189zM84.549 734.536v-615.291c0-46.671 75.249-98.64 183.189-98.64s183.189 51.969 183.189 98.64v615.291zM267.738 311.792c-23.348 0-42.274 18.927-42.274 42.274v0 23.505c0 23.348 18.927 42.274 42.274 42.274s42.274-18.927 42.274-42.274v0-23.505c0-23.348-18.927-42.274-42.274-42.274v0zM267.738 476.211c-23.348 0-42.274 18.927-42.274 42.274v0 70.457c0 23.348 18.927 42.274 42.274 42.274s42.274-18.927 42.274-42.274v0-70.457c0-23.348-18.927-42.274-42.274-42.274v0zM493.202 147.429h-413.388c-23.348 0-42.274 18.927-42.274 42.274s18.927 42.274 42.274 42.274v0h413.388c23.348 0 42.274-18.927 42.274-42.274s-18.927-42.274-42.274-42.274v0z" />
<glyph unicode="&#xe94d;" glyph-name="warning" d="M0 448c0-282.772 229.23-512 512-512 282.772 0 512 229.228 512 512 0 282.77-229.228 512-512 512-282.77 0-512-229.23-512-512zM930.89 448c0-231.361-187.546-418.918-418.89-418.918-231.346 0-418.889 187.557-418.889 418.918s187.543 418.917 418.889 418.917c231.344 0 418.89-187.555 418.89-418.917zM512.019 168.909c25.715 0 46.561 20.838 46.561 46.546s-20.846 46.546-46.561 46.546c-25.714 0-46.561-20.838-46.561-46.546s20.846-46.546 46.561-46.546zM558.71 727.353h-93.121v-372.366h93.121v372.366z" />
<glyph unicode="&#xe94e;" glyph-name="paperpin" d="M995.878 811.656l-120.218 120.219c-37.504 37.5-98.317 37.5-135.821 0l-113.094-113.099 256.032-256.040 113.101 113.1c37.498 37.5 37.498 98.3 0 135.82zM502.289 852.716c-31.239 31.24-81.878 31.24-113.117 0l-237.554-237.58c-12.5-12.5-12.5-32.76 0-45.24l45.259-45.26c12.499-12.5 32.759-12.5 45.259 0l203.635 203.64 45.259-45.24-303.112-303.1c-104.991-104.993-171.134-242.586-187.555-390.157l-0.060-0.461c-3.4-30.56 22.419-56.403 52.979-53.018 147.758 16.314 285.551 82.483 390.67 187.597l393.567 393.579-335.228 335.239z" />
<glyph unicode="&#xe94f;" glyph-name="attachment" horiz-adv-x="2048" d="M1582.545 75.636h-1070.545c-205.731 0-372.364 166.633-372.364 372.364s166.633 372.364 372.364 372.364h1163.636c128.465 0 232.727-104.262 232.727-232.727s-104.262-232.727-232.727-232.727h-977.455c-51.2 0-93.091 41.891-93.091 93.091s41.891 93.091 93.091 93.091h884.364v139.636h-884.364c-128.465 0-232.727-104.262-232.727-232.727s104.262-232.727 232.727-232.727h977.455c205.731 0 372.364 166.633 372.364 372.364s-166.633 372.364-372.364 372.364h-1163.636c-282.996 0-512-229.004-512-512s229.004-512 512-512h1070.545v139.636z" />
<glyph unicode="&#xe950;" glyph-name="HomeIcon" d="M409.6-64h-256v512h-153.6l512 512 512-512h-153.6v-512h-256v307.2h-204.8v-307.2z" />
<glyph unicode="&#xe951;" glyph-name="addIcon" d="M394.971 960h234.057v-394.971h394.971v-234.057h-394.971v-394.971h-234.057v394.971h-394.971v234.057h394.971z" />
<glyph unicode="&#xe952;" glyph-name="takeoffplane" d="M104.239 374.931c-0.028-0.017-0.058-0.028-0.088-0.047-11.095-5.767-15.914-19.091-11.062-30.622 4.866-11.569 17.813-17.441 29.721-13.479l335.726 111.7-62.775-102.514c-4.56-7.447-3.596-17.022 2.358-23.411 5.954-6.387 15.438-8.023 23.191-3.992l65.834 34.209c1.89 0.981 3.607 2.268 5.081 3.81l195.029 203.725 240.692 125.589c91.157 49.14 80.596 86.914 75.19 97.318-4.191 8.067-13.561 18.884-34.383 24.604-21.119 5.803-49.652 5.34-87.211-1.416-12.539-2.254-19.46-2.064-26.789-1.863-25.764 0.705-43.241-1.022-130.014-46.112l-474.595-246.635-184.050 95.519c-6.94 3.601-15.198 3.598-22.138-0.011l-31.013-16.118c-6.384-3.317-10.944-9.321-12.426-16.361-1.482-7.042 0.27-14.377 4.772-19.984l127.744-159.112-28.792-14.798zM978.252 181.643h-898.493c-25.266 0-45.748-20.488-45.748-45.748s20.482-45.748 45.748-45.748h898.493c25.266 0 45.748 20.482 45.748 45.748-0.003 25.268-20.482 45.748-45.748 45.748z" />
<glyph unicode="&#xe953;" glyph-name="landplane" d="M73.071 489.846l244.996-84.894-121.563-68.463c-6.078-3.406-8.75-10.754-6.345-17.366 1.803-4.742 6.011-8.082 10.687-8.95 1.803-0.267 3.674-0.267 5.544 0.067l222.353 45.887c-1.403-14.561 8.349-28.053 22.977-30.791 5.143-1.002 10.153-0.401 14.761 1.269 3.74-3.206 8.149-5.544 13.225-6.546 15.429-2.939 30.391 7.214 33.263 22.71 0.2 1.002 0.2 1.937 0.267 2.939 9.217 2.471 16.631 9.485 19.637 18.836l313.859-59.245c-9.752-3.072-17.5-11.088-19.503-21.774-2.939-15.429 7.214-30.391 22.71-33.263 15.429-2.939 30.324 7.214 33.263 22.71 2.004 10.687-2.338 21.040-10.286 27.385l54.303-10.219c41.812-7.882 74.14-22.376 82.088 19.437-11.689 66.058-108.538 123.032-150.351 130.914l-232.305 43.749-324.947 211.132c-1.603 1.002-3.273 1.67-5.076 2.071-4.742 0.868-9.819-0.668-13.225-4.475-4.675-5.21-4.876-13.025-0.401-18.435l121.229-148.213-221.952 41.879c-15.362 41.412-33.129 89.97-51.364 141.734-52.232 148.213-95.246 74.006-98.92 54.503l-31.459-243.66c-3.674-19.503 12.691-19.637 32.194-23.377l40.343-7.548zM61.65 133.64h962.35v-37.938h-962.35v37.938z" />
<glyph unicode="&#xe954;" glyph-name="edit" d="M712.653 618.144c8.602 8.283 8.602 21.663 0 29.946l-51.597 49.698c-8.597 8.283-22.49 8.283-31.091 0l-43.217-41.627 82.688-79.645 43.217 41.628zM647.381 555.283l-82.688 79.644-220.497-212.386v-79.642h82.688l220.497 212.384zM785.195 279.181h-529.195v-84.954h529.195v84.954z" />
<glyph unicode="&#xe955;" glyph-name="import" horiz-adv-x="1178" d="M768 448l-256 256v-192h-512v-128h512v-192zM1152 64v768c0 33.948-13.486 66.505-37.489 90.51-24.008 24.005-56.566 37.49-90.511 37.49h-768c-33.948 0-66.505-13.486-90.51-37.49s-37.49-56.562-37.49-90.51v-192h128v192h768v-768h-768v192h-128v-192c0-33.946 13.486-66.504 37.49-90.511 24.005-24.003 56.562-37.489 90.51-37.489h768c33.946 0 66.504 13.486 90.511 37.489 24.003 24.008 37.489 56.566 37.489 90.511z" />
<glyph unicode="&#xe956;" glyph-name="certificate" d="M747.549-17.013l-84.436 42.218-84.407-42.218c-3.818-1.955-8.329-3.1-13.107-3.1-16.158 0-29.257 13.098-29.257 29.256v0 117.029h-458.313c-43.081 0.033-77.996 34.948-78.029 78.026v633.888c0.033 43.081 34.948 77.996 78.026 78.029h877.717c43.081-0.033 77.996-34.948 78.029-78.026v-633.888c-0.033-43.091-34.965-78.012-78.056-78.029h-165.773v-117.029c0-0.004 0-0.009 0-0.014 0-16.158-13.099-29.257-29.257-29.257-4.767 0-9.268 1.14-13.244 3.162l0.166-0.077zM676.191 84.070l55.237-27.56v154.887c-19.549-7.657-42.185-12.095-65.858-12.095-0.741 0-1.48 0.004-2.219 0.013l0.112-0.001h-0.322c-0.722-0.010-1.574-0.016-2.428-0.016-23.648 0-46.275 4.374-67.115 12.356l1.286-0.433v-154.712l55.179 27.56c3.807 1.961 8.308 3.11 13.078 3.11s9.271-1.149 13.242-3.186l-0.164 0.076zM955.714 184.686c10.778 0 19.515 8.737 19.515 19.515v0 633.885c0 10.778-8.737 19.515-19.515 19.515v0h-877.714c-10.765-0.017-19.485-8.747-19.485-19.514 0 0 0 0 0 0v0-633.885c0-10.778 8.737-19.515 19.515-19.515v0h458.313v68.871c-30.186 31.476-48.772 74.28-48.772 121.426 0 96.95 78.593 175.543 175.543 175.543s175.543-78.593 175.543-175.543c0-47.146-18.586-89.951-48.83-121.488l0.059 0.062v-68.871zM546.114 374.857c0-64.633 52.395-117.029 117.029-117.029v0 0c0.022 0 0.048 0 0.073 0 29.19 0 55.872 10.735 76.315 28.473l-0.144-0.122c1.368 1.563 2.884 2.94 4.543 4.13l0.080 0.054c22.301 21.345 36.162 51.351 36.162 84.595 0 64.633-52.395 117.029-117.029 117.029s-117.029-52.395-117.029-117.029c0-0.035 0-0.070 0-0.105v0.005zM224.285 321.258c-16.158 0-29.257 13.099-29.257 29.257s13.099 29.257 29.257 29.257v0h97.543c16.158 0 29.257-13.099 29.257-29.257s-13.099-29.257-29.257-29.257v0zM224.285 491.915c-16.158 0-29.257 13.099-29.257 29.257s13.099 29.257 29.257 29.257v0h146.286c16.158 0 29.257-13.099 29.257-29.257s-13.099-29.257-29.257-29.257v0zM224.285 662.572c-16.158 0-29.257 13.099-29.257 29.257s13.099 29.257 29.257 29.257v0h585.143c16.158 0 29.257-13.099 29.257-29.257s-13.099-29.257-29.257-29.257v0z" />
<glyph unicode="&#xe957;" glyph-name="contacts" d="M848-64h-672c-17.673 0-32 14.327-32 32v0 815.008c-0.009 0.289-0.015 0.629-0.015 0.971 0 11.381 5.941 21.375 14.892 27.048l0.131 0.077c2.812 1.807 6.082 3.218 9.576 4.052l0.216 0.044 526.784 143.648c2.531 0.723 5.438 1.143 8.443 1.152h0.005c7.33-0.015 14.079-2.491 19.467-6.647l-0.075 0.055c7.673-5.838 12.577-14.974 12.577-25.256 0-0.065 0-0.129-0.001-0.194v0.010-112h112c17.673 0 32-14.327 32-32v0-815.968c0-17.673-14.327-32-32-32v0zM416 240c-17.673 0-32-14.327-32-32v0c0-17.673 14.327-32 32-32v0h192c17.673 0 32 14.327 32 32v0c0 17.673-14.327 32-32 32v0zM512 576c-70.692 0-128-57.308-128-128v0c0-70.692 57.308-128 128-128v0c70.656 0.091 127.909 57.344 128 127.991v0.009c-0.091 70.656-57.344 127.909-127.991 128h-0.009zM672 886.112l-257.024-70.112h257.024v70.112zM512 384c-35.346 0-64 28.654-64 64v0c0 35.346 28.654 64 64 64v0c35.346 0 64-28.654 64-64v0c0-35.346-28.654-64-64-64v0z" />
<glyph unicode="&#xe958;" glyph-name="search" d="M64-64c-17.673 0-32 14.327-32 32v0 32c0 124.416 0 186.88 26.72 239.36 23.897 46.441 60.791 83.335 105.867 106.592l1.365 0.64c52.48 26.752 114.944 26.752 239.392 26.752h218.656c17.673 0 32-14.327 32-32s-14.327-32-32-32v0h-218.656c-114.208 0-171.52 0-210.336-19.744-34.324-17.657-61.594-44.917-78.791-78.224l-0.473-1.008c-19.744-38.816-19.744-96.16-19.744-210.368h528c17.673 0 32-14.327 32-32s-14.327-32-32-32v0zM948.032-27.936l-64.576 64.544c-20.671-12.928-45.783-20.595-72.685-20.595-76.525 0-138.56 62.035-138.56 138.56s62.035 138.56 138.56 138.56c76.525 0 138.56-62.035 138.56-138.56 0-26.902-7.667-52.014-20.935-73.269l0.34 0.584 64.544-64.608c6.027-5.827 9.769-13.985 9.769-23.017 0-17.673-14.327-32-32-32-9.032 0-17.19 3.742-23.009 9.76l-0.009 0.009zM192 741.312c0 120.76 97.896 218.656 218.656 218.656s218.656-97.896 218.656-218.656c0-120.76-97.896-218.656-218.656-218.656v0c-120.702 0.146-218.511 97.954-218.656 218.642v0.014z" />
<glyph unicode="&#xe959;" glyph-name="envelope" d="M105.412-59c-24.95 0-45.176 20.226-45.176 45.176v0 927.895c-0.003 0.204-0.005 0.444-0.005 0.685 0 2.031 0.133 4.031 0.391 5.991l-0.025-0.23v0.181c0.589 4.416 1.73 8.418 3.365 12.155l-0.113-0.289 0.090 0.331h0.090l0.181 0.482c2.661 5.837 6.308 10.785 10.775 14.845l0.037 0.033 0.271 0.271 0.241 0.181 0.181 0.151 0.301 0.271c1.446 1.247 3.038 2.446 4.707 3.538l0.172 0.106 0.783 0.512 0.271 0.151 0.542 0.331 0.392 0.211 0.301 0.181 0.663 0.361c6.219 3.454 13.638 5.487 21.533 5.487 0.244 0 0.488-0.002 0.731-0.006h801.755c0.221 0.004 0.482 0.006 0.743 0.006 7.851 0 15.232-2.011 21.656-5.545l-0.233 0.117 0.843-0.602h0.211l0.392-0.241 0.542-0.331 0.301-0.181 0.632-0.392h0.151c1.81-1.174 3.372-2.343 4.852-3.606l-0.063 0.052 0.271-0.241 0.181-0.181 0.181-0.151 0.301-0.271c4.487-4.079 8.122-9.006 10.667-14.538l0.115-0.28 0.301-0.723v-0.301c1.519-3.439 2.66-7.43 3.227-11.604l0.026-0.232v-0.181c0.234-1.73 0.367-3.731 0.367-5.762 0-0.251-0.002-0.501-0.006-0.751v0.038-927.895c0-24.95-20.226-45.176-45.176-45.176v0zM150.588 31.352h712.794v95.383h-712.794zM863.383 217.058v570.338l-70.325-86.739c-8.349-10.233-20.959-16.715-35.084-16.715-0.001 0-0.002 0-0.003 0h-205.824v-466.824zM461.824 217.058v466.854h-205.824c-0.001 0-0.002 0-0.003 0-14.125 0-26.735 6.482-35.019 16.634l-0.064 0.081-70.325 86.769v-570.308zM736.437 774.234l77.342 95.413h-613.587l77.312-95.383h458.903z" />
<glyph unicode="&#xe95a;" glyph-name="person" horiz-adv-x="1133" d="M1089.362-42.213v32.681c0 118.348 0 177.827-21.351 219.746-19.090 37.102-48.565 66.577-84.577 85.156l-1.090 0.511c-7.104 3.692-11.872 10.996-11.872 19.412 0 12.044 9.763 21.807 21.807 21.807 3.627 0 7.047-0.885 10.056-2.452l-0.121 0.057c45.287-23.311 81.267-59.291 103.954-103.247l0.625-1.332c26.145-51.287 26.145-114.209 26.145-239.66v-32.681c0-12.033-9.754-21.787-21.787-21.787s-21.787 9.754-21.787 21.787v0zM21.787-64c-12.033 0-21.787 9.754-21.787 21.787v0 32.681c0 125.32 0 188.242 26.145 239.66 23.311 45.287 59.291 81.267 103.247 103.954l1.332 0.625c51.244 26.145 114.165 26.145 239.66 26.145h119.83c125.32 0 188.242 0 239.66-26.145 45.291-23.307 81.272-59.288 103.954-103.247l0.624-1.331c26.145-51.287 26.145-114.209 26.145-239.66v-32.681c0-12.033-9.754-21.787-21.787-21.787v0zM217.872 747.574c0 117.319 95.106 212.426 212.426 212.426s212.426-95.106 212.426-212.426c0-117.319-95.106-212.426-212.426-212.426v0c-117.27 0.124-212.302 95.156-212.426 212.414v0.012zM782.205 572.928c-1.961 3.206-3.122 7.087-3.122 11.238 0 7.873 4.176 14.771 10.434 18.599l0.095 0.054c49.373 30.081 81.839 83.627 81.839 144.754s-32.466 114.673-81.095 144.333l-0.744 0.422c-5.591 3.997-9.192 10.467-9.192 17.778 0 12.033 9.754 21.787 21.787 21.787 3.626 0 7.046-0.886 10.054-2.453l-0.121 0.057c62.094-37.843 102.923-105.192 102.923-182.076s-40.829-144.233-101.987-181.546l-0.935-0.53c-3.214-1.973-7.106-3.142-11.27-3.142-7.881 0-14.785 4.185-18.611 10.453l-0.054 0.096z" />
<glyph unicode="&#xe95b;" glyph-name="success" horiz-adv-x="974" d="M486.932-64v0l-134.676 98.099-166.461-0.287-50.954 158.392-134.84 97.567 51.773 158.228-51.773 158.228 134.84 97.567 51.159 158.392 166.257-0.287 134.676 98.099 134.472-98.099 166.461 0.287 51.118-158.392 134.84-97.567-51.651-158.228 51.732-158.228-134.84-97.567-51.118-158.392-166.461 0.287-134.513-98.099zM307.732 488.96c-0.010 0-0.021 0-0.032 0-22.622 0-40.96-18.338-40.96-40.96 0-11.329 4.599-21.584 12.033-28.999l128.042-128.001c7.412-7.41 17.65-11.993 28.959-11.993s21.547 4.583 28.959 11.993l256 256.041c7.715 7.459 12.505 17.901 12.505 29.462 0 22.622-18.338 40.96-40.96 40.96-11.561 0-22.003-4.79-29.451-12.493l-227.052-227.052-99.041 99.041c-7.375 7.414-17.585 12.002-28.866 12.002-0.047 0-0.094 0-0.141 0h0.007z" />
<glyph unicode="&#xe95c;" d="M0 960h1024v-1024h-1024z" />
<glyph unicode="&#xe95d;" d="M128 768c0 35.346 28.654 64 64 64v0h539.307l164.659-153.6v-550.4c0-35.346-28.654-64-64-64v0h-639.966c-35.346 0-64 28.654-64 64v0z" />
<glyph unicode="&#xe95e;" d="M192 866.133h539.307c9.008-0.004 17.2-3.496 23.298-9.2l-0.019 0.018 164.659-153.6c6.684-6.245 10.851-15.111 10.854-24.951v-550.401c-0.058-54.174-43.959-98.075-98.128-98.133h-639.971c-54.174 0.058-98.075 43.959-98.133 98.128v640.006c0.058 54.174 43.959 98.075 98.128 98.133h0.006zM717.892 797.867h-525.892c-16.487-0.019-29.847-13.38-29.867-29.865v-640.002c0.019-16.487 13.38-29.847 29.865-29.867h640.002c16.487 0.019 29.847 13.38 29.867 29.865v535.417z" />
<glyph unicode="&#xe95f;" d="M512.171 832l-0.171-157.525c0-7.236-9.557-13.141-21.333-13.141h-170.667c-11.776 0-21.333 5.871-21.333 13.141v157.525z" />
<glyph unicode="&#xe960;" glyph-name="testtube" horiz-adv-x="522" d="M81.525-17.166c-46.618 24.803-78.504 71.872-81.508 126.635l-0.017 0.391v676.252c0 16.006 12.975 28.981 28.981 28.981v0h463.702c16.006 0 28.981-12.975 28.981-28.981v0-676.252c-3.021-55.154-34.907-102.223-80.702-126.625l-0.822-0.4c-49.519-29.472-109.189-46.893-172.928-46.893-2.243 0-4.481 0.022-6.714 0.065l0.334-0.005c-1.898-0.038-4.137-0.059-6.38-0.059-63.739 0-123.409 17.421-174.508 47.762l1.58-0.869zM57.963 109.859c3.595-34.331 24.499-63.074 53.715-77.617l0.567-0.256c40.756-23.951 89.771-38.098 142.090-38.098 2.285 0 4.563 0.027 6.835 0.081l-0.337-0.006c1.935-0.047 4.213-0.074 6.498-0.074 52.319 0 101.334 14.147 143.429 38.823l-1.339-0.725c29.783 14.799 50.687 43.542 54.246 77.45l0.036 0.423v43.472h-396.089c-3.463 0.009-6.779 0.625-9.852 1.745l0.201-0.064zM57.963 209.642c2.872 1.047 6.188 1.652 9.645 1.652 0.002 0 0.004 0 0.006 0h396.089v545.836h-405.74zM231.851 351.39v24.142c0 16.006 12.975 28.981 28.981 28.981s28.981-12.975 28.981-28.981v0-24.142c0-16.006-12.975-28.981-28.981-28.981s-28.981 12.975-28.981 28.981v0zM231.851 520.468v72.454c0 16.006 12.975 28.981 28.981 28.981s28.981-12.975 28.981-28.981v0-72.454c0-16.006-12.975-28.981-28.981-28.981s-28.981 12.975-28.981 28.981v0zM28.981 902.037c-16.006 0-28.981 12.975-28.981 28.981s12.975 28.981 28.981 28.981v0h463.702c16.006 0 28.981-12.975 28.981-28.981s-12.975-28.981-28.981-28.981v0z" />
<glyph unicode="&#xe961;" d="M298.667 866.133h213.504c18.851 0 34.133-15.282 34.133-34.133v0l-0.171-157.559c-2.024-26.608-24.111-47.43-51.061-47.43-1.551 0-3.086 0.069-4.602 0.204l0.196-0.014h-170.667c-1.319-0.121-2.853-0.19-4.403-0.19-26.962 0-49.057 20.841-51.053 47.293l-0.010 0.172v157.525c0 18.851 15.282 34.133 34.133 34.133v0zM477.867 797.867h-145.067v-102.4h145.067z" />
<glyph unicode="&#xe962;" d="M731.341 797.867h-539.341c-18.851 0-34.133 15.282-34.133 34.133s15.282 34.133 34.133 34.133v0h539.307c18.851 0 34.133-15.282 34.133-34.133s-15.282-34.133-34.133-34.133v0z" />
<glyph unicode="&#xe963;" d="M725.333 371.2h-426.667c-18.851 0-34.133 15.282-34.133 34.133s15.282 34.133 34.133 34.133v0h426.667c18.851 0 34.133-15.282 34.133-34.133s-15.282-34.133-34.133-34.133v0z" />
<glyph unicode="&#xe964;" d="M512.171 200.533h-213.504c-18.851 0-34.133 15.282-34.133 34.133s15.282 34.133 34.133 34.133v0h213.504c18.851 0 34.133-15.282 34.133-34.133s-15.282-34.133-34.133-34.133v0z" />
<glyph unicode="&#xe965;" glyph-name="imageicon" horiz-adv-x="768" d="M768 716.118v-12.118h-256v256h12.119c12.728 0 24.94-5.057 33.94-14.058l195.881-195.882c9.001-9.002 14.060-21.211 14.060-33.942zM496 640c-26.4 0-48 21.6-48 48v272h-400c-26.51 0-48-21.49-48-48v-928c0-26.511 21.49-48 48-48h672c26.511 0 48 21.489 48 48v656h-272zM225.090 608c53.020 0 96-42.98 96-96s-42.98-96-96-96c-53.020 0-96 42.98-96 96s42.982 96 96 96zM641.091 128h-512.001l0.97 96.968 79.030 79.032c9.372 9.37 23.598 8.402 32.97-0.968l79.030-79.032 207.028 207.032c9.375 9.37 24.571 9.37 33.946 0l79.027-79.032v-224z" />
<glyph unicode="&#xe966;" d="M0 960h1024v-1024h-1024z" />
<glyph unicode="&#xe967;" d="M192 746.667v-725.333h640v725.333z" />
<glyph unicode="&#xe968;" d="M192 763.733h640c9.426 0 17.067-7.641 17.067-17.067v0-725.333c0-9.426-7.641-17.067-17.067-17.067v0h-640c-9.426 0-17.067 7.641-17.067 17.067v0 725.333c0 9.426 7.641 17.067 17.067 17.067v0zM814.933 729.6h-605.867v-691.2h605.867z" />
<glyph unicode="&#xe969;" d="M426.667 238.933c-9.426 0-17.067 7.641-17.067 17.067v0 277.333c0 9.426 7.641 17.067 17.067 17.067s17.067-7.641 17.067-17.067v0-277.333c0-9.426-7.641-17.067-17.067-17.067v0z" />
<glyph unicode="&#xe96a;" d="M597.333 238.933c-9.426 0-17.067 7.641-17.067 17.067v0 277.333c0 9.426 7.641 17.067 17.067 17.067s17.067-7.641 17.067-17.067v0-277.333c0-9.426-7.641-17.067-17.067-17.067v0z" />
<glyph unicode="&#xe96b;" d="M938.667 729.6h-853.333c-9.426 0-17.067 7.641-17.067 17.067s7.641 17.067 17.067 17.067v0h853.333c9.426 0 17.067-7.641 17.067-17.067s-7.641-17.067-17.067-17.067v0z" />
<glyph unicode="&#xe96c;" d="M341.333 746.667l70.144 128h202.411l68.779-128z" />
<glyph unicode="&#xe96d;" d="M682.667 729.6h-341.333c-9.416 0.012-17.045 7.649-17.045 17.067 0 3.004 0.776 5.827 2.139 8.279l-0.044-0.087 70.178 128c2.949 5.312 8.516 8.853 14.913 8.875h202.414c6.459-0.004 12.078-3.594 14.974-8.888l0.045-0.089 68.745-128c1.284-2.34 2.039-5.126 2.039-8.090 0-9.411-7.616-17.042-17.021-17.067h-0.002zM370.142 763.733h283.989l-50.449 93.867h-182.101z" />
</font>
</defs>
</svg>
