<svg width="20" height="20" viewBox="0 0 20 20" fill="none" xmlns="http://www.w3.org/2000/svg">
<path d="M0 0H20V20H0V0Z" fill="white" fill-opacity="0.01"/>
<path d="M7.91667 8.33333C9.5275 8.33333 10.8333 7.0275 10.8333 5.41667C10.8333 3.80584 9.5275 2.5 7.91667 2.5C6.30583 2.5 5 3.80584 5 5.41667C5 7.0275 6.30583 8.33333 7.91667 8.33333Z" fill="#11CCC1" stroke="black" stroke-linejoin="round"/>
<path d="M15 12.0835V17.0835M12.5 14.5835H17.5" stroke="black" stroke-linecap="round" stroke-linejoin="round"/>
<path d="M11.25 11.6665H7.83333C5.9665 11.6665 5.03308 11.6665 4.32004 12.0298C3.69283 12.3494 3.18289 12.8593 2.86331 13.4865C2.5 14.1996 2.5 15.133 2.5 16.9998V17.4998H11.25" stroke="black" stroke-linecap="round" stroke-linejoin="round"/>
</svg>
